<svg xmlns="http://www.w3.org/2000/svg" width="1200" height="330" viewBox="0 0 1200 330" role="img" aria-label="徐文曜 · Wenyao Xu closed loop architecture" data-mode="dark">
      <defs>
    <linearGradient id="bg" x1="0" y1="0" x2="1" y2="1"><stop stop-color="#07131A"/><stop offset="1" stop-color="#10141F"/></linearGradient>
    <linearGradient id="accent" x1="0" y1="0" x2="1" y2="0"><stop stop-color="#10B981"/><stop offset="1" stop-color="#8B5CF6"/></linearGradient>
    <pattern id="grid" width="40" height="40" patternUnits="userSpaceOnUse"><path d="M40 0H0V40" fill="none" stroke="#17313C" stroke-width="1"/></pattern>
    <filter id="glow" x="-80%" y="-80%" width="260%" height="260%"><feGaussianBlur stdDeviation="7" result="b"/><feMerge><feMergeNode in="b"/><feMergeNode in="SourceGraphic"/></feMerge></filter>
    <clipPath id="frame"><rect x="1" y="1" width="1198" height="358" rx="18"/></clipPath>
  </defs><style>
    text{font-family:ui-monospace,SFMono-Regular,Menlo,Monaco,Consolas,"Liberation Mono",monospace}
    .label{font-size:12px;letter-spacing:3px;font-weight:700}.micro{font-size:10px;letter-spacing:2px}
    .flow{stroke-dasharray:7 9;animation:flow 8s linear infinite}.pulse{transform-box:fill-box;transform-origin:center;animation:pulse 2.4s ease-in-out infinite}
    .orbit{transform-box:fill-box;transform-origin:center;animation:orbit 24s linear infinite}.blink{animation:blink 2s ease-in-out infinite}
    @keyframes flow{to{stroke-dashoffset:-160}}@keyframes pulse{50%{opacity:.35;transform:scale(.72)}}
    @keyframes orbit{to{transform:rotate(360deg)}}@keyframes blink{50%{opacity:.35}}
    @media(prefers-reduced-motion:reduce){.flow,.pulse,.orbit,.blink{animation:none}}
  </style><rect width="1200" height="330" rx="18" fill="url(#bg)"/><rect width="1200" height="330" rx="18" fill="url(#grid)" opacity=".7"/>
      <text x="28" y="34" class="label" fill="#10B981">CLOSED LOOP / ARCHITECTURE MAP</text><text x="1170" y="34" text-anchor="end" class="micro" fill="#8BA9B5">06 NODES · ONE SYSTEM</text>
      <path d="M600.0 60.0L972.4 112.0L972.4 216.0L600.0 268.0L227.6 216.0L227.6 112.0Z" fill="none" stroke="#2B4A57" stroke-width="2"/><path class="flow" d="M600.0 60.0L972.4 112.0L972.4 216.0L600.0 268.0L227.6 216.0L227.6 112.0Z" fill="none" stroke="url(#accent)" stroke-width="2"/>
      <g transform="translate(600 164)"><circle r="62" fill="#0C1C24" stroke="#2B4A57"/><circle class="orbit" r="48" fill="none" stroke="url(#accent)" stroke-width="2" stroke-dasharray="5 8"/>
      <circle r="23" fill="#07131A" stroke="#10B981" filter="url(#glow)"/><circle class="pulse" r="6" fill="#10B981"/>
      <text y="84" text-anchor="middle" class="micro" fill="#8BA9B5">TRUSTWORTHY AI AGENTS</text></g><g><circle cx="600.0" cy="60.0" r="15" fill="#0C1C24" stroke="#10B981" stroke-width="2"/><circle class="pulse" cx="600.0" cy="60.0" r="4" fill="#10B981"/>
        <text x="600.0" y="42.0" text-anchor="middle" font-size="10" font-weight="700" fill="#E7F7FC">RETRIEVE</text>
        <text x="600.0" y="54.0" text-anchor="middle" font-size="8" fill="#8BA9B5">FAR</text>
        <text x="600.0" y="63.0" text-anchor="middle" font-size="8" fill="#10B981">01</text></g><g><circle cx="972.4" cy="112.0" r="15" fill="#0C1C24" stroke="#10B981" stroke-width="2"/><circle class="pulse" cx="972.4" cy="112.0" r="4" fill="#10B981"/>
        <text x="972.4" y="94.0" text-anchor="middle" font-size="10" font-weight="700" fill="#E7F7FC">VERIFY</text>
        <text x="972.4" y="106.0" text-anchor="middle" font-size="8" fill="#8BA9B5">VeraRAG</text>
        <text x="972.4" y="115.0" text-anchor="middle" font-size="8" fill="#10B981">02</text></g><g><circle cx="972.4" cy="216.0" r="15" fill="#0C1C24" stroke="#10B981" stroke-width="2"/><circle class="pulse" cx="972.4" cy="216.0" r="4" fill="#10B981"/>
        <text x="972.4" y="246.0" text-anchor="middle" font-size="10" font-weight="700" fill="#E7F7FC">CITE</text>
        <text x="972.4" y="258.0" text-anchor="middle" font-size="8" fill="#8BA9B5">citeguard</text>
        <text x="972.4" y="219.0" text-anchor="middle" font-size="8" fill="#10B981">03</text></g><g><circle cx="600.0" cy="268.0" r="15" fill="#0C1C24" stroke="#10B981" stroke-width="2"/><circle class="pulse" cx="600.0" cy="268.0" r="4" fill="#10B981"/>
        <text x="600.0" y="298.0" text-anchor="middle" font-size="10" font-weight="700" fill="#E7F7FC">PLAN</text>
        <text x="600.0" y="310.0" text-anchor="middle" font-size="8" fill="#8BA9B5">agentic-os-core</text>
        <text x="600.0" y="271.0" text-anchor="middle" font-size="8" fill="#10B981">04</text></g><g><circle cx="227.6" cy="216.0" r="15" fill="#0C1C24" stroke="#8B5CF6" stroke-width="2"/><circle class="pulse" cx="227.6" cy="216.0" r="4" fill="#8B5CF6"/>
        <text x="227.6" y="246.0" text-anchor="middle" font-size="10" font-weight="700" fill="#E7F7FC">REMEMBER</text>
        <text x="227.6" y="258.0" text-anchor="middle" font-size="8" fill="#8BA9B5">metacognitive-memory</text>
        <text x="227.6" y="219.0" text-anchor="middle" font-size="8" fill="#8B5CF6">05</text></g><g><circle cx="227.6" cy="112.0" r="15" fill="#0C1C24" stroke="#8B5CF6" stroke-width="2"/><circle class="pulse" cx="227.6" cy="112.0" r="4" fill="#8B5CF6"/>
        <text x="227.6" y="94.0" text-anchor="middle" font-size="10" font-weight="700" fill="#E7F7FC">TEACH</text>
        <text x="227.6" y="106.0" text-anchor="middle" font-size="8" fill="#8BA9B5">struct-viz</text>
        <text x="227.6" y="115.0" text-anchor="middle" font-size="8" fill="#8B5CF6">06</text></g>
      <rect x="1" y="1" width="1198" height="328" rx="18" fill="none" stroke="#8B5CF6" stroke-opacity=".55"/>
    </svg>