<svg xmlns="http://www.w3.org/2000/svg" width="1200" height="360" viewBox="0 0 1200 360" role="img" aria-label="徐文曜 · Wenyao Xu profile control plane" data-mode="light">
      <defs>
    <linearGradient id="bg" x1="0" y1="0" x2="1" y2="1"><stop stop-color="#F6FBFD"/><stop offset="1" stop-color="#FFF6FA"/></linearGradient>
    <linearGradient id="accent" x1="0" y1="0" x2="1" y2="0"><stop stop-color="#10B981"/><stop offset="1" stop-color="#8B5CF6"/></linearGradient>
    <pattern id="grid" width="40" height="40" patternUnits="userSpaceOnUse"><path d="M40 0H0V40" fill="none" stroke="#D7E7ED" stroke-width="1"/></pattern>
    <filter id="glow" x="-80%" y="-80%" width="260%" height="260%"><feGaussianBlur stdDeviation="7" result="b"/><feMerge><feMergeNode in="b"/><feMergeNode in="SourceGraphic"/></feMerge></filter>
    <clipPath id="frame"><rect x="1" y="1" width="1198" height="358" rx="18"/></clipPath>
  </defs><style>
    text{font-family:ui-monospace,SFMono-Regular,Menlo,Monaco,Consolas,"Liberation Mono",monospace}
    .label{font-size:12px;letter-spacing:3px;font-weight:700}.micro{font-size:10px;letter-spacing:2px}
    .flow{stroke-dasharray:7 9;animation:flow 8s linear infinite}.pulse{transform-box:fill-box;transform-origin:center;animation:pulse 2.4s ease-in-out infinite}
    .orbit{transform-box:fill-box;transform-origin:center;animation:orbit 24s linear infinite}.blink{animation:blink 2s ease-in-out infinite}
    @keyframes flow{to{stroke-dashoffset:-160}}@keyframes pulse{50%{opacity:.35;transform:scale(.72)}}
    @keyframes orbit{to{transform:rotate(360deg)}}@keyframes blink{50%{opacity:.35}}
    @media(prefers-reduced-motion:reduce){.flow,.pulse,.orbit,.blink{animation:none}}
  </style>
      <g clip-path="url(#frame)"><rect width="1200" height="360" fill="url(#bg)"/><rect width="1200" height="360" fill="url(#grid)" opacity=".7"/>
      <path d="M0 292C240 250 360 176 566 84S930 20 1200 0V360H0Z" fill="#10B981" opacity=".035"/>
      <path d="M660 0l290 360h250V0Z" fill="#8B5CF6" opacity=".04"/>
      <path d="M0 1h1200" stroke="url(#accent)" stroke-width="2"/>
      <g transform="translate(22 22)"><circle cx="0" cy="0" r="4" fill="#EF4B5A"/><circle cx="18" cy="0" r="4" fill="#E6A425"/><circle cx="36" cy="0" r="4" fill="#22A447"/>
      <text x="58" y="4" class="micro" fill="#506D7A">徐文曜 · WENYAO XU / CONTROL_PLANE</text></g>
      <g transform="translate(1046 22)"><circle class="blink" cx="0" cy="0" r="4" fill="#10B981" filter="url(#glow)"/><text x="14" y="4" class="micro" fill="#506D7A">SYSTEM ONLINE</text></g>
      <path d="M0 44h1200" stroke="#A9C4CF"/>
      <text x="38" y="91" class="label" fill="#10B981">// BUILDING THE INFRASTRUCTURE LAYER</text>
      <text x="38" y="159" font-size="52" font-weight="900" letter-spacing="-2" fill="#102934">TRUSTWORTHY</text><text x="38" y="218" font-size="45" font-weight="900" letter-spacing="-1.5" fill="#102934">AI AGENTS</text>
      <text x="40" y="252" font-size="13" letter-spacing="2" fill="#506D7A">构建会自我验证的 AI 智能体 —— 从证伪引导检索、可验证 RAG,到可审计的记忆与规划。 · 成都 · UTC+8</text>
      <g transform="translate(1018 151)"><circle r="74" fill="none" stroke="#A9C4CF"/><circle class="orbit" r="57" fill="none" stroke="#10B981" stroke-width="1.5" stroke-dasharray="8 10" opacity=".65"/>
      <g stroke="#10B981" opacity=".6"><path d="M0-74V-25M64-37L22-13M64 37L22 13M0 74V25M-64 37L-22 13M-64-37L-22-13"/></g>
      <circle r="18" fill="#FFFFFF" stroke="#10B981" filter="url(#glow)"/><circle class="pulse" r="5" fill="#10B981"/>
      <g fill="#FFFFFF" stroke="#10B981"><circle cy="-74" r="6"/><circle cx="64" cy="-37" r="6"/><circle cx="64" cy="37" r="6"/><circle cy="74" r="6"/><circle cx="-64" cy="37" r="6"/><circle cx="-64" cy="-37" r="6"/></g></g>
      <text x="973" y="247" class="micro" fill="#506D7A">CLOSED LOOP</text>
      <text x="22" y="288" class="micro" fill="#8B5CF6">EXECUTION PATH / 06 ACTIVE LAYERS</text>
      <g transform="translate(22.0 304)">
        <rect width="182.7" height="38" rx="5" fill="#FFFFFF" fill-opacity=".82" stroke="#10B981" stroke-opacity=".65"/>
        <circle class="pulse" cx="14" cy="19" r="3" fill="#10B981"/>
        <path d="M24 19h148.7" stroke="#10B981" stroke-opacity=".18" stroke-dasharray="7 9"/>
        <text x="91.3" y="16" text-anchor="middle" font-size="8" letter-spacing="1.3" fill="#506D7A">RETRIEVE</text>
        <text x="91.3" y="29" text-anchor="middle" font-size="9" font-weight="700" fill="#10B981">FAR</text>
      </g><g transform="translate(216.7 304)">
        <rect width="182.7" height="38" rx="5" fill="#FFFFFF" fill-opacity=".82" stroke="#10B981" stroke-opacity=".65"/>
        <circle class="pulse" cx="14" cy="19" r="3" fill="#10B981"/>
        <path d="M24 19h148.7" stroke="#10B981" stroke-opacity=".18" stroke-dasharray="7 9"/>
        <text x="91.3" y="16" text-anchor="middle" font-size="8" letter-spacing="1.3" fill="#506D7A">VERIFY</text>
        <text x="91.3" y="29" text-anchor="middle" font-size="9" font-weight="700" fill="#10B981">VeraRAG</text>
      </g><g transform="translate(411.3 304)">
        <rect width="182.7" height="38" rx="5" fill="#FFFFFF" fill-opacity=".82" stroke="#10B981" stroke-opacity=".65"/>
        <circle class="pulse" cx="14" cy="19" r="3" fill="#10B981"/>
        <path d="M24 19h148.7" stroke="#10B981" stroke-opacity=".18" stroke-dasharray="7 9"/>
        <text x="91.3" y="16" text-anchor="middle" font-size="8" letter-spacing="1.3" fill="#506D7A">CITE</text>
        <text x="91.3" y="29" text-anchor="middle" font-size="9" font-weight="700" fill="#10B981">citeguard</text>
      </g><g transform="translate(606.0 304)">
        <rect width="182.7" height="38" rx="5" fill="#FFFFFF" fill-opacity=".82" stroke="#10B981" stroke-opacity=".65"/>
        <circle class="pulse" cx="14" cy="19" r="3" fill="#10B981"/>
        <path d="M24 19h148.7" stroke="#10B981" stroke-opacity=".18" stroke-dasharray="7 9"/>
        <text x="91.3" y="16" text-anchor="middle" font-size="8" letter-spacing="1.3" fill="#506D7A">PLAN</text>
        <text x="91.3" y="29" text-anchor="middle" font-size="9" font-weight="700" fill="#10B981">agentic-os-core</text>
      </g><g transform="translate(800.7 304)">
        <rect width="182.7" height="38" rx="5" fill="#FFFFFF" fill-opacity=".82" stroke="#8B5CF6" stroke-opacity=".65"/>
        <circle class="pulse" cx="14" cy="19" r="3" fill="#8B5CF6"/>
        <path d="M24 19h148.7" stroke="#8B5CF6" stroke-opacity=".18" stroke-dasharray="7 9"/>
        <text x="91.3" y="16" text-anchor="middle" font-size="8" letter-spacing="1.3" fill="#506D7A">REMEMBER</text>
        <text x="91.3" y="29" text-anchor="middle" font-size="9" font-weight="700" fill="#8B5CF6">metacognitive-m…</text>
      </g><g transform="translate(995.3 304)">
        <rect width="182.7" height="38" rx="5" fill="#FFFFFF" fill-opacity=".82" stroke="#8B5CF6" stroke-opacity=".65"/>
        <circle class="pulse" cx="14" cy="19" r="3" fill="#8B5CF6"/>
        <path d="M24 19h148.7" stroke="#8B5CF6" stroke-opacity=".18" stroke-dasharray="7 9"/>
        <text x="91.3" y="16" text-anchor="middle" font-size="8" letter-spacing="1.3" fill="#506D7A">TEACH</text>
        <text x="91.3" y="29" text-anchor="middle" font-size="9" font-weight="700" fill="#8B5CF6">struct-viz</text>
      </g></g>
      <rect x="1" y="1" width="1198" height="358" rx="18" fill="none" stroke="#10B981" stroke-opacity=".72"/>
    </svg>